<?xml version="1.0" encoding="UTF-8" standalone="no"?> <svg id="Gradient_Line" data-name="Gradient Line" xmlns="http://www.w3.org/2000/svg" xmlns:xlink="http://www.w3.org/1999/xlink" viewBox="0 0 64 64"><defs><style>.cls-1{fill:url(#linear-gradient);}</style><linearGradient id="linear-gradient" x1="10.3915" y1="31.97839" x2="53.60919" y2="31.97839" gradientUnits="userSpaceOnUse"><stop offset="0" stop-color="#ffa68d"/><stop offset="1" stop-color="#fd3a84"/></linearGradient></defs><title>1</title><path class="cls-1" d="M10.96484,38.9541a11.41385,11.41385,0,0,0,11.628,14.86606,10.27876,10.27876,0,0,0,18.81442,0A11.41362,11.41362,0,0,0,53.035,38.953a11.048,11.048,0,0,0-6.83675-6.99041,14.29362,14.29362,0,0,0-2.44984-9.88245,8.15359,8.15359,0,0,0,5.71937-7.81744V5a.99942.99942,0,0,0-1-1H46.40918a7.18353,7.18353,0,0,0-7.17578,7.17578v6.69605a14.38409,14.38409,0,0,0-14.4668-.08942V11.17578A7.18353,7.18353,0,0,0,17.59082,4H15.53223a.99942.99942,0,0,0-1,1v9.2627a8.18305,8.18305,0,0,0,5.60205,7.77124,14.31427,14.31427,0,0,0-2.4718,9.97125A11.05952,11.05952,0,0,0,10.96484,38.9541ZM41.2334,11.17578c.02309-3.3988,2.97954-5.53176,6.2344-5.17566l0,8.26258a6.16176,6.16176,0,0,1-5.09472,6.10253,13.77687,13.77687,0,0,0-1.13965-1.08007ZM16.53223,14.2627V6c3.25545-.355,6.211,1.77586,6.23435,5.17587l0,7.98917a15.15392,15.15392,0,0,0-1.25781,1.17187A6.18343,6.18343,0,0,1,16.53223,14.2627Zm5.2373,18.97753c.01976-.49642-.02185-1.50482-.06642-2-1.25106-.12772-2.41464.88288-2.15508-.99319C19.404,20.04162,31.70836,14.10137,39.61245,20.5423a12.37687,12.37687,0,0,1,4.69516,9.70477c.23591,1.84143-.829.86487-2.07727.99318a.97392.97392,0,0,0-.9696.997,1.02522,1.02522,0,0,0,1.02246,1.00293A9.29,9.29,0,1,1,42.29,51.82031a14.99166,14.99166,0,0,0-1.76838.04208.98013.98013,0,0,0-.71886.59946c-2.79856,7.59052-13.16634,7.19743-15.81012-.326-.40948-.49221-1.73449-.27052-2.28273-.31558C9.51531,51.41043,9.22925,33.66373,21.76953,33.24023Zm6.11328,15.43848a5.03442,5.03442,0,0,0,4.117-2.10736,5.12372,5.12372,0,0,0,9.23352-3.01,1.00015,1.00015,0,0,0-1.99994.00022,3.11275,3.11275,0,0,1-6.18616.46647l1.87952-2.93235a3.07505,3.07505,0,0,0-2.5743-4.70991,3.12722,3.12722,0,0,0-3.27921,4.71L30.954,44.03a3.10991,3.10991,0,0,1-6.18732-.46861,1,1,0,0,0-2.00006.0001A5.12258,5.12258,0,0,0,27.88281,48.67871Zm2.874-8.66308a1.05823,1.05823,0,0,1,.89062-1.62989h.70508a1.05823,1.05823,0,0,1,.89062,1.62989L32,41.95508Zm-3.90332-8.834a3.05879,3.05879,0,0,0-.0001-6.11719A3.05879,3.05879,0,0,0,26.85352,31.18164Zm0-4.11719a1.05871,1.05871,0,0,1,0,2.11719A1.05871,1.05871,0,0,1,26.85352,27.06445Zm10.293,4.11719a3.05879,3.05879,0,0,0-.00009-6.11719A3.05879,3.05879,0,0,0,37.14648,31.18164Zm0-4.11719a1.05871,1.05871,0,0,1,0,2.11719A1.05871,1.05871,0,0,1,37.14648,27.06445Z"/></svg>